<?xml version="1.0" encoding="UTF-8" standalone="no"?>
<!-- Created with Inkscape (http://www.inkscape.org/) -->

<svg
   xmlns:dc="http://purl.org/dc/elements/1.1/"
   xmlns:cc="http://creativecommons.org/ns#"
   xmlns:rdf="http://www.w3.org/1999/02/22-rdf-syntax-ns#"
   xmlns:svg="http://www.w3.org/2000/svg"
   xmlns="http://www.w3.org/2000/svg"
   xmlns:sodipodi="http://sodipodi.sourceforge.net/DTD/sodipodi-0.dtd"
   xmlns:inkscape="http://www.inkscape.org/namespaces/inkscape"
   width="500"
   height="30"
   id="svg3145"
   version="1.1"
   inkscape:version="0.48.4 r9939"
   sodipodi:docname="New document 8">
  <defs
     id="defs3147" />
  <sodipodi:namedview
     id="base"
     pagecolor="#ffffff"
     bordercolor="#666666"
     borderopacity="1.0"
     inkscape:pageopacity="0.0"
     inkscape:pageshadow="2"
     inkscape:zoom="0.7"
     inkscape:cx="233.01931"
     inkscape:cy="20.485418"
     inkscape:document-units="px"
     inkscape:current-layer="layer1"
     showgrid="false"
     inkscape:window-width="1197"
     inkscape:window-height="701"
     inkscape:window-x="2"
     inkscape:window-y="214"
     inkscape:window-maximized="0" />
  <metadata
     id="metadata3150">
    <rdf:RDF>
      <cc:Work
         rdf:about="">
        <dc:format>image/svg+xml</dc:format>
        <dc:type
           rdf:resource="http://purl.org/dc/dcmitype/StillImage" />
        <dc:title></dc:title>
      </cc:Work>
    </rdf:RDF>
  </metadata>
  <g
     inkscape:label="Layer 1"
     inkscape:groupmode="layer"
     id="layer1"
     transform="translate(0,-1022.3622)">
    <path
       inkscape:connector-curvature="0"
       d="m 11.901023,1031.5766 0,10.2668 0,-10.2668 16.01612,0 0,5.1334 0,-5.1334 16.01611,0 0,7.1867 0,-7.1867 16.01612,0 0,5.1334 0,-5.1334 16.01613,0 0,7.1867 0,-7.1867 16.01612,0 0,10.2668 0,-10.2668 16.016127,0 0,7.1867 0,-7.1867 16.01611,0 0,5.1334 0,-5.1334 16.01613,0 0,7.1867 0,-7.1867 16.01612,0 0,5.1334 0,-5.1334 16.01612,0 0,10.2668 0,-10.2668 m 0,0 0,10.2668 0,-10.2668 16.01613,0 0,5.1334 0,-5.1334 16.01612,0 0,7.1867 0,-7.1867 16.01612,0 0,5.1334 0,-5.1334 16.01612,0 0,7.1867 0,-7.1867 16.01613,0 0,10.2668 0,-10.2668 16.01612,0 0,7.1867 0,-7.1867 16.01613,0 0,5.1334 0,-5.1334 16.01611,0 0,7.1867 0,-7.1867 16.01613,0 0,5.1334 0,-5.1334 16.01612,0 0,10.2668 0,-10.2668 m 0,0 0,10.2668 0,-10.2668 16.01613,0 0,5.1334 0,-5.1334 16.01612,0 0,7.1867 0,-7.1867 16.01613,0 0,5.1334 0,-5.1334 16.01611,0 0,7.1867 0,-7.1867 16.01613,0 0,10.2668 0,-10.2668 16.01612,0 0,7.1867 0,-7.1867 16.01613,0 0,5.1334 0,-5.1334 16.01612,0 0,7.1867 0,-7.1867 16.01612,0 0,5.1334 0,-5.1334 16.01612,0 0,10.2668 0,-10.2668"
       id="path9-4-6"
       style="fill:none;stroke:#0000ff;stroke-width:1.02667463" />
  </g>
</svg>
